<svg id="Capa_1" enable-background="new 0 0 510 510" height="512" viewBox="0 0 510 510" width="512" xmlns="http://www.w3.org/2000/svg"><g id="XMLID_2021_"><path id="XMLID_2022_" d="m292.5 112.5v-15c0-20.678-16.822-37.5-37.5-37.5-4.136 0-7.5-3.364-7.5-7.5v-15c0-4.136 3.864-7.5 8-7.5h37v-30h-37c-20.678 0-38 16.822-38 37.5v15c0 20.678 16.822 37.5 37.5 37.5 4.136 0 7.5 3.364 7.5 7.5v15c0 4.136-2.864 7.5-7 7.5h-38v30h38c20.678 0 37-16.822 37-37.5z"/><path id="XMLID_2088_" d="m502.5 0h-90v30h30v120h30v-120h30z"/><path id="XMLID_2091_" d="m37.5 90h15.5c8.271 0 14.5 6.729 14.5 15v45h30v-45c0-11.517-4.104-22.032-11.245-30 7.142-7.968 11.62-18.483 11.62-30 0-24.812-20.062-45-44.875-45h-45.5v150h30zm0-60h15.5c8.271 0 15 6.729 15 15s-6.729 15-15 15h-15.5z"/><path id="XMLID_2092_" d="m187.5 120h-30v-30h30v-30h-30v-30h30v-30h-60v150h60z"/><path id="XMLID_2093_" d="m382.5 120h-30v-30h30v-30h-30v-30h30v-30h-60v150h60z"/><path id="XMLID_2096_" d="m369.004 285.018c-11.65-.315-22.544 3.737-31.146 11.454-17.169-15.371-42.865-15.241-59.89.015-7.967-7.139-18.72-11.486-30.234-11.486-5.257 0-10.234.906-15.234 2.57v-61.946c0-24.726-20.071-45.604-45-45.61v-.015h-89.5c-33.084 0-60 26.916-60 60s26.916 60 60 60h44.5v56.36l-12.488-12.739c-17.318-17.315-45.535-17.904-63.057-1.316-18.197 17.224-18.94 46.381-.783 64.537l103.634 103.158h198.194c24.814 0 44.5-20.186 44.5-45v-134.376c0-24.487-19.375-44.946-43.496-45.606zm-271.004-15.018c-16.542 0-30-13.458-30-30s13.458-30 30-30h47.553c-5.215 14.805-2.197 32.374-3.053 60zm284.5 195c0 8.272-6.228 15-14.5 15h-185.806l-94.801-94.394c-5.956-5.956-5.872-15.662.31-21.514 5.837-5.524 15.161-5.19 21.096.743l63.701 63.952c0-9.303 0-196.422 0-203.787 0-7.312 5.982-13.458 12.689-14.727 9.329-1.78 17.311 5.906 17.311 15.351v134.376h30v-30c0-8.271 6.729-15 15-15s15 6.729 15 15v30h30v-30c0-8.271 6.728-15 15-15s15 6.729 15 15v30h30v-30c0-4.085 1.863-7.903 4.792-10.752 2.926-2.847 6.653-4.351 10.765-4.242 8.033.22 14.443 7.227 14.443 15.618z"/></g></svg>